<svg id="Final_Logo" data-name="Final Logo" xmlns="http://www.w3.org/2000/svg" viewBox="0 0 205.45 41.03"><defs><style>.cls-1{fill:#d5b480;}.cls-2{fill:#a7a9ac;}</style></defs><title>ee-logo</title><path class="cls-1" d="M1042.53,345.88v3.43h4.11v1h-4.11v3.76h4.72v1h-5.79V344.92h5.79v1Z" transform="translate(-1005.84 -338.54)"/><path class="cls-1" d="M1048.66,354l.57-.81a4,4,0,0,0,2.49,1,2,2,0,0,0,2.14-1.85c0-2.42-4.72-1.78-4.72-5a2.72,2.72,0,0,1,3-2.64,4.36,4.36,0,0,1,2.46.76l-.48.79a3.66,3.66,0,0,0-1.95-.59,1.79,1.79,0,0,0-2,1.62c0,2.41,4.76,1.8,4.76,5a2.92,2.92,0,0,1-3.22,2.88A4.66,4.66,0,0,1,1048.66,354Z" transform="translate(-1005.84 -338.54)"/><path class="cls-1" d="M1055.83,354l.57-.81a4,4,0,0,0,2.49,1,2,2,0,0,0,2.14-1.85c0-2.42-4.71-1.78-4.71-5a2.71,2.71,0,0,1,3-2.64,4.36,4.36,0,0,1,2.46.76l-.49.79a3.63,3.63,0,0,0-1.94-.59,1.78,1.78,0,0,0-2,1.62c0,2.41,4.75,1.8,4.75,5a2.91,2.91,0,0,1-3.21,2.88A4.68,4.68,0,0,1,1055.83,354Z" transform="translate(-1005.84 -338.54)"/><path class="cls-1" d="M1065.09,345.88v3.43h4.12v1h-4.12v3.76h4.73v1H1064V344.92h5.8v1Z" transform="translate(-1005.84 -338.54)"/><path class="cls-1" d="M1079.51,355.24l-6.36-7.72V355h-1.06V344.71l6.38,7.65v-7.44h1Z" transform="translate(-1005.84 -338.54)"/><path class="cls-1" d="M1088.26,345.89h-3V355h-1.07v-9.14h-3v-1h7.1Z" transform="translate(-1005.84 -338.54)"/><path class="cls-1" d="M1089.58,344.92h1.07V355h-1.07Z" transform="translate(-1005.84 -338.54)"/><path class="cls-1" d="M1098,352.48h-4.15l-1,2.55h-1.13l4.21-10.32,4.17,10.32H1099Zm-.35-.91-1.71-4.44-1.73,4.44Z" transform="translate(-1005.84 -338.54)"/><path class="cls-1" d="M1107.57,354.05v1h-6V344.92h1.07v9.13Z" transform="translate(-1005.84 -338.54)"/><path class="cls-1" d="M1114.76,345.88v3.43h4.12v1h-4.12v3.76h4.73v1h-5.8V344.92h5.8v1Z" transform="translate(-1005.84 -338.54)"/><path class="cls-1" d="M1127.78,354.05v1h-6V344.92h1.07v9.13Z" transform="translate(-1005.84 -338.54)"/><path class="cls-1" d="M1130.7,345.88v3.43h4.11v1h-4.11v3.76h4.73v1h-5.8V344.92h5.8v1Z" transform="translate(-1005.84 -338.54)"/><path class="cls-1" d="M1146.26,349.36v4a5.54,5.54,0,0,1-4.23,1.89,5.24,5.24,0,1,1,.07-10.48,5.62,5.62,0,0,1,3.88,1.51l-.63.78a4.81,4.81,0,0,0-3.23-1.31,4.18,4.18,0,0,0-4.23,4.26,4.25,4.25,0,0,0,4.17,4.24,4.6,4.6,0,0,0,3.24-1.35V350.3h-2.88v-.94Z" transform="translate(-1005.84 -338.54)"/><path class="cls-1" d="M1153.53,352.48h-4.15l-1,2.55h-1.13l4.22-10.32,4.17,10.32h-1.14Zm-.34-.91-1.71-4.44-1.74,4.44Z" transform="translate(-1005.84 -338.54)"/><path class="cls-1" d="M1164.49,355.24l-6.37-7.72V355h-1V344.71l6.38,7.65v-7.44h1Z" transform="translate(-1005.84 -338.54)"/><path class="cls-1" d="M1166.62,350a5.18,5.18,0,0,1,5.2-5.24,5.72,5.72,0,0,1,3.63,1.33l-.64.78a4.93,4.93,0,0,0-3-1.13,4.25,4.25,0,0,0,0,8.5,4.75,4.75,0,0,0,3-1.1l.64.76a5.47,5.47,0,0,1-3.65,1.34A5.18,5.18,0,0,1,1166.62,350Z" transform="translate(-1005.84 -338.54)"/><path class="cls-1" d="M1178.3,345.88v3.43h4.11v1h-4.11v3.76H1183v1h-5.8V344.92h5.8v1Z" transform="translate(-1005.84 -338.54)"/><path class="cls-1" d="M1189.26,344.92h1.07V355h-1.07Z" transform="translate(-1005.84 -338.54)"/><path class="cls-1" d="M1200.27,355.24l-6.37-7.72V355h-1.05V344.71l6.38,7.65v-7.44h1Z" transform="translate(-1005.84 -338.54)"/><path class="cls-1" d="M1202.4,350a5.18,5.18,0,0,1,5.2-5.24,5.72,5.72,0,0,1,3.63,1.33l-.64.78a4.93,4.93,0,0,0-3-1.13,4.25,4.25,0,0,0,0,8.5,4.75,4.75,0,0,0,3-1.1l.64.76a5.47,5.47,0,0,1-3.65,1.34A5.18,5.18,0,0,1,1202.4,350Z" transform="translate(-1005.84 -338.54)"/><path class="cls-2" d="M1044,365v.43h-2.66V361h.47v4Z" transform="translate(-1005.84 -338.54)"/><path class="cls-2" d="M1049,361h.47v4.47H1049Z" transform="translate(-1005.84 -338.54)"/><path class="cls-2" d="M1058.1,361l-1.92,4.56-1.9-4.56h.51l1.39,3.43,1.43-3.43Z" transform="translate(-1005.84 -338.54)"/><path class="cls-2" d="M1063.5,361.4v1.52h1.82v.43h-1.82V365h2.09v.43H1063V361h2.56v.43Z" transform="translate(-1005.84 -338.54)"/><path class="cls-2" d="M1076.65,365l.25-.36a1.8,1.8,0,0,0,1.1.43.88.88,0,0,0,1-.82c0-1.07-2.09-.79-2.09-2.21a1.2,1.2,0,0,1,1.33-1.16,2,2,0,0,1,1.08.33l-.21.35a1.65,1.65,0,0,0-.86-.26.79.79,0,0,0-.87.72c0,1.06,2.1.79,2.1,2.22a1.28,1.28,0,0,1-1.42,1.27A2,2,0,0,1,1076.65,365Z" transform="translate(-1005.84 -338.54)"/><path class="cls-2" d="M1084.44,361h.48v4.47h-.48Z" transform="translate(-1005.84 -338.54)"/><path class="cls-2" d="M1094.45,360.88v4.56H1094v-3.36l-1.59,1.89-1.59-1.89v3.36h-.47v-4.56l2.06,2.43Z" transform="translate(-1005.84 -338.54)"/><path class="cls-2" d="M1102.8,362.31a1.34,1.34,0,0,1-1.35,1.34h-1v1.79H1100V361h1.44A1.34,1.34,0,0,1,1102.8,362.31Zm-.47,0a.87.87,0,0,0-.9-.91h-.94v1.82h.94A.88.88,0,0,0,1102.33,362.31Z" transform="translate(-1005.84 -338.54)"/><path class="cls-2" d="M1110.65,365v.43H1108V361h.47v4Z" transform="translate(-1005.84 -338.54)"/><path class="cls-2" d="M1116.25,361.4v1.52h1.82v.43h-1.82V365h2.09v.43h-2.57V361h2.57v.43Z" transform="translate(-1005.84 -338.54)"/><path class="cls-2" d="M1131,363.68v1.76h-.47v-1.77l-1.33-2.7h.55l1,2.18,1-2.18h.54Z" transform="translate(-1005.84 -338.54)"/><path class="cls-2" d="M1137.76,361.4v1.52h1.82v.43h-1.82V365h2.09v.43h-2.57V361h2.57v.43Z" transform="translate(-1005.84 -338.54)"/><path class="cls-2" d="M1147.9,361.4h-1.33v4h-.48v-4h-1.33V361h3.14Z" transform="translate(-1005.84 -338.54)"/><path class="cls-2" d="M1159.59,361.4v1.52h1.82v.43h-1.82V365h2.09v.43h-2.56V361h2.56v.43Z" transform="translate(-1005.84 -338.54)"/><path class="cls-2" d="M1169.66,365v.43H1167V361h.48v4Z" transform="translate(-1005.84 -338.54)"/><path class="cls-2" d="M1175.25,361.4v1.52h1.83v.43h-1.83V365h2.1v.43h-2.57V361h2.57v.43Z" transform="translate(-1005.84 -338.54)"/><path class="cls-2" d="M1186.44,362.93v1.76a2.44,2.44,0,0,1-1.87.83,2.32,2.32,0,1,1,0-4.63,2.49,2.49,0,0,1,1.72.67l-.28.34a2.17,2.17,0,0,0-1.43-.58,1.84,1.84,0,0,0-1.87,1.88,1.88,1.88,0,0,0,1.84,1.88,2.05,2.05,0,0,0,1.44-.6v-1.13h-1.27v-.42Z" transform="translate(-1005.84 -338.54)"/><path class="cls-2" d="M1194,364.32h-1.84l-.44,1.12h-.5l1.87-4.56,1.84,4.56h-.5Zm-.16-.41-.75-2-.77,2Z" transform="translate(-1005.84 -338.54)"/><path class="cls-2" d="M1203.12,365.53l-2.82-3.41v3.32h-.47v-4.56l2.83,3.38V361h.46Z" transform="translate(-1005.84 -338.54)"/><path class="cls-2" d="M1211.29,361.4H1210v4h-.47v-4h-1.34V361h3.14Z" transform="translate(-1005.84 -338.54)"/><path class="cls-1" d="M1006.93,342.55h14.76v8h-11.4v-5h8.06v2.31h-5.82V349h6.91v-4.49H1009.2v7.16h13.58V341.46h-16.94v25h1.39v3a1.47,1.47,0,1,0,2,1.36,1.48,1.48,0,0,0-.92-1.36v-3h3v6.63a1.47,1.47,0,1,0,1.09,0v-6.63h3v10.3a1.47,1.47,0,1,0,1.09,0v-10.3h3v6.63a1.47,1.47,0,1,0,1.09,0v-6.63h2.92v3a1.47,1.47,0,1,0,1.09,0v-3h1.47v-1.1h-19.19Z" transform="translate(-1005.84 -338.54)"/><polygon class="cls-1" points="0 0 0 1.09 19.19 1.09 19.19 23.9 4.43 23.9 4.43 15.89 15.83 15.89 15.83 20.87 7.77 20.87 7.77 18.56 13.59 18.56 13.59 17.47 6.68 17.47 6.68 21.96 16.92 21.96 16.92 14.8 3.34 14.8 3.34 24.99 20.28 24.99 20.28 0 0 0"/></svg>